<mxfile host="app.diagrams.net" modified="2024-05-17T06:22:27.972Z" agent="Mozilla/5.0 (Windows NT 10.0; Win64; x64) AppleWebKit/537.36 (KHTML, like Gecko) Chrome/124.0.0.0 Safari/537.36 Edg/124.0.0.0" etag="5rB6X3mdNiMV-Z_Yywvu" version="24.4.3" type="device">
  <diagram id="E_soCZdwU5kFe0LfVomH" name="第 1 页">
    <mxGraphModel dx="659" dy="-368" grid="0" gridSize="10" guides="1" tooltips="1" connect="1" arrows="1" fold="1" page="1" pageScale="1" pageWidth="400" pageHeight="380" math="0" shadow="0">
      <root>
        <mxCell id="0" />
        <mxCell id="1" parent="0" />
        <mxCell id="5" value="" style="shape=table;html=1;whiteSpace=wrap;startSize=0;container=1;collapsible=0;childLayout=tableLayout;direction=east;fontFamily=Times New Roman;movable=1;resizable=1;rotatable=1;deletable=1;editable=1;connectable=1;" parent="1" vertex="1">
          <mxGeometry x="83.74" y="896.1399999999996" width="45" height="180" as="geometry" />
        </mxCell>
        <mxCell id="6" style="shape=tableRow;horizontal=0;startSize=0;swimlaneHead=0;swimlaneBody=0;top=0;left=0;bottom=0;right=0;collapsible=0;dropTarget=0;fillColor=none;points=[[0,0.5],[1,0.5]];portConstraint=eastwest;" parent="5" vertex="1">
          <mxGeometry width="45" height="20" as="geometry" />
        </mxCell>
        <mxCell id="7" value="&lt;span style=&quot;font-family: &amp;quot;Linux Libertine&amp;quot;;&quot;&gt;&lt;i&gt;src&lt;/i&gt;&lt;br&gt;&lt;/span&gt;" style="shape=partialRectangle;html=1;whiteSpace=wrap;connectable=0;fillColor=none;top=0;left=0;bottom=0;right=0;overflow=hidden;" parent="6" vertex="1">
          <mxGeometry width="45" height="20" as="geometry">
            <mxRectangle width="45" height="20" as="alternateBounds" />
          </mxGeometry>
        </mxCell>
        <mxCell id="69" style="shape=tableRow;horizontal=0;startSize=0;swimlaneHead=0;swimlaneBody=0;top=0;left=0;bottom=0;right=0;collapsible=0;dropTarget=0;fillColor=none;points=[[0,0.5],[1,0.5]];portConstraint=eastwest;" parent="5" vertex="1">
          <mxGeometry y="20" width="45" height="20" as="geometry" />
        </mxCell>
        <mxCell id="70" value="&lt;font face=&quot;Times New Roman&quot;&gt;1&lt;/font&gt;" style="shape=partialRectangle;html=1;whiteSpace=wrap;connectable=0;fillColor=none;top=0;left=0;bottom=0;right=0;overflow=hidden;strokeColor=#d6b656;" parent="69" vertex="1">
          <mxGeometry width="45" height="20" as="geometry">
            <mxRectangle width="45" height="20" as="alternateBounds" />
          </mxGeometry>
        </mxCell>
        <mxCell id="72" style="shape=tableRow;horizontal=0;startSize=0;swimlaneHead=0;swimlaneBody=0;top=0;left=0;bottom=0;right=0;collapsible=0;dropTarget=0;fillColor=none;points=[[0,0.5],[1,0.5]];portConstraint=eastwest;" parent="5" vertex="1">
          <mxGeometry y="40" width="45" height="20" as="geometry" />
        </mxCell>
        <mxCell id="73" value="&lt;font face=&quot;Times New Roman&quot;&gt;19&lt;/font&gt;" style="shape=partialRectangle;html=1;whiteSpace=wrap;connectable=0;fillColor=none;top=0;left=0;bottom=0;right=0;overflow=hidden;" parent="72" vertex="1">
          <mxGeometry width="45" height="20" as="geometry">
            <mxRectangle width="45" height="20" as="alternateBounds" />
          </mxGeometry>
        </mxCell>
        <mxCell id="75" style="shape=tableRow;horizontal=0;startSize=0;swimlaneHead=0;swimlaneBody=0;top=0;left=0;bottom=0;right=0;collapsible=0;dropTarget=0;fillColor=none;points=[[0,0.5],[1,0.5]];portConstraint=eastwest;" parent="5" vertex="1">
          <mxGeometry y="60" width="45" height="20" as="geometry" />
        </mxCell>
        <mxCell id="76" value="&lt;font face=&quot;Times New Roman&quot;&gt;31&lt;/font&gt;" style="shape=partialRectangle;html=1;whiteSpace=wrap;connectable=1;fillColor=#FFF2CC;top=0;left=0;bottom=0;right=0;overflow=hidden;movable=1;resizable=1;rotatable=1;deletable=1;editable=1;" parent="75" vertex="1">
          <mxGeometry width="45" height="20" as="geometry">
            <mxRectangle width="45" height="20" as="alternateBounds" />
          </mxGeometry>
        </mxCell>
        <mxCell id="78" style="shape=tableRow;horizontal=0;startSize=0;swimlaneHead=0;swimlaneBody=0;top=0;left=0;bottom=0;right=0;collapsible=0;dropTarget=0;fillColor=none;points=[[0,0.5],[1,0.5]];portConstraint=eastwest;" parent="5" vertex="1">
          <mxGeometry y="80" width="45" height="20" as="geometry" />
        </mxCell>
        <mxCell id="79" value="&lt;font face=&quot;Times New Roman&quot;&gt;22&lt;/font&gt;" style="shape=partialRectangle;html=1;whiteSpace=wrap;connectable=0;fillColor=none;top=0;left=0;bottom=0;right=0;overflow=hidden;" parent="78" vertex="1">
          <mxGeometry width="45" height="20" as="geometry">
            <mxRectangle width="45" height="20" as="alternateBounds" />
          </mxGeometry>
        </mxCell>
        <mxCell id="81" style="shape=tableRow;horizontal=0;startSize=0;swimlaneHead=0;swimlaneBody=0;top=0;left=0;bottom=0;right=0;collapsible=0;dropTarget=0;fillColor=none;points=[[0,0.5],[1,0.5]];portConstraint=eastwest;" parent="5" vertex="1">
          <mxGeometry y="100" width="45" height="20" as="geometry" />
        </mxCell>
        <mxCell id="82" value="&lt;font face=&quot;Times New Roman&quot;&gt;44&lt;/font&gt;" style="shape=partialRectangle;html=1;whiteSpace=wrap;connectable=0;fillColor=#cdeb8b;top=0;left=0;bottom=0;right=0;overflow=hidden;strokeColor=#36393d;" parent="81" vertex="1">
          <mxGeometry width="45" height="20" as="geometry">
            <mxRectangle width="45" height="20" as="alternateBounds" />
          </mxGeometry>
        </mxCell>
        <mxCell id="84" style="shape=tableRow;horizontal=0;startSize=0;swimlaneHead=0;swimlaneBody=0;top=0;left=0;bottom=0;right=0;collapsible=0;dropTarget=0;fillColor=none;points=[[0,0.5],[1,0.5]];portConstraint=eastwest;" parent="5" vertex="1">
          <mxGeometry y="120" width="45" height="20" as="geometry" />
        </mxCell>
        <mxCell id="85" value="&lt;font face=&quot;Times New Roman&quot;&gt;19&lt;/font&gt;" style="shape=partialRectangle;html=1;whiteSpace=wrap;connectable=0;fillColor=none;top=0;left=0;bottom=0;right=0;overflow=hidden;" parent="84" vertex="1">
          <mxGeometry width="45" height="20" as="geometry">
            <mxRectangle width="45" height="20" as="alternateBounds" />
          </mxGeometry>
        </mxCell>
        <mxCell id="87" style="shape=tableRow;horizontal=0;startSize=0;swimlaneHead=0;swimlaneBody=0;top=0;left=0;bottom=0;right=0;collapsible=0;dropTarget=0;fillColor=none;points=[[0,0.5],[1,0.5]];portConstraint=eastwest;" parent="5" vertex="1">
          <mxGeometry y="140" width="45" height="20" as="geometry" />
        </mxCell>
        <mxCell id="88" value="" style="shape=partialRectangle;html=1;whiteSpace=wrap;connectable=0;fillColor=none;top=0;left=0;bottom=0;right=0;overflow=hidden;" parent="87" vertex="1">
          <mxGeometry width="45" height="20" as="geometry">
            <mxRectangle width="45" height="20" as="alternateBounds" />
          </mxGeometry>
        </mxCell>
        <mxCell id="90" style="shape=tableRow;horizontal=0;startSize=0;swimlaneHead=0;swimlaneBody=0;top=0;left=0;bottom=0;right=0;collapsible=0;dropTarget=0;fillColor=none;points=[[0,0.5],[1,0.5]];portConstraint=eastwest;" parent="5" vertex="1">
          <mxGeometry y="160" width="45" height="20" as="geometry" />
        </mxCell>
        <mxCell id="91" value="" style="shape=partialRectangle;html=1;whiteSpace=wrap;connectable=0;fillColor=none;top=0;left=0;bottom=0;right=0;overflow=hidden;" parent="90" vertex="1">
          <mxGeometry width="45" height="20" as="geometry">
            <mxRectangle width="45" height="20" as="alternateBounds" />
          </mxGeometry>
        </mxCell>
        <mxCell id="93" value="" style="shape=table;html=1;whiteSpace=wrap;startSize=0;container=1;collapsible=0;childLayout=tableLayout;direction=east;movable=1;resizable=1;rotatable=1;deletable=1;editable=1;connectable=1;" parent="1" vertex="1">
          <mxGeometry x="167.74" y="896.1399999999999" width="45" height="180" as="geometry" />
        </mxCell>
        <mxCell id="94" style="shape=tableRow;horizontal=0;startSize=0;swimlaneHead=0;swimlaneBody=0;top=0;left=0;bottom=0;right=0;collapsible=0;dropTarget=0;fillColor=none;points=[[0,0.5],[1,0.5]];portConstraint=eastwest;movable=1;resizable=1;rotatable=1;deletable=1;editable=1;connectable=1;locked=0;" parent="93" vertex="1">
          <mxGeometry width="45" height="20" as="geometry" />
        </mxCell>
        <mxCell id="95" value="&lt;font data-font-src=&quot;https://fonts.googleapis.com/css?family=Linux+Libertine&quot; face=&quot;Linux Libertine&quot;&gt;&lt;i&gt;src&lt;/i&gt;&lt;/font&gt;" style="shape=partialRectangle;html=1;whiteSpace=wrap;connectable=1;fillColor=none;top=0;left=0;bottom=0;right=0;overflow=hidden;movable=1;resizable=1;rotatable=1;deletable=1;editable=1;locked=0;" parent="94" vertex="1">
          <mxGeometry width="45" height="20" as="geometry">
            <mxRectangle width="45" height="20" as="alternateBounds" />
          </mxGeometry>
        </mxCell>
        <mxCell id="97" style="shape=tableRow;horizontal=0;startSize=0;swimlaneHead=0;swimlaneBody=0;top=0;left=0;bottom=0;right=0;collapsible=0;dropTarget=0;fillColor=none;points=[[0,0.5],[1,0.5]];portConstraint=eastwest;" parent="93" vertex="1">
          <mxGeometry y="20" width="45" height="20" as="geometry" />
        </mxCell>
        <mxCell id="98" value="&lt;font face=&quot;Times New Roman&quot;&gt;31&lt;/font&gt;" style="shape=partialRectangle;html=1;whiteSpace=wrap;connectable=1;fillColor=#FFF2CC;top=0;left=0;bottom=0;right=0;overflow=hidden;movable=1;resizable=1;rotatable=1;deletable=1;editable=1;" parent="97" vertex="1">
          <mxGeometry width="45" height="20" as="geometry">
            <mxRectangle width="45" height="20" as="alternateBounds" />
          </mxGeometry>
        </mxCell>
        <mxCell id="100" style="shape=tableRow;horizontal=0;startSize=0;swimlaneHead=0;swimlaneBody=0;top=0;left=0;bottom=0;right=0;collapsible=0;dropTarget=0;fillColor=none;points=[[0,0.5],[1,0.5]];portConstraint=eastwest;" parent="93" vertex="1">
          <mxGeometry y="40" width="45" height="20" as="geometry" />
        </mxCell>
        <mxCell id="101" value="&lt;font face=&quot;Times New Roman&quot;&gt;4&lt;/font&gt;" style="shape=partialRectangle;html=1;whiteSpace=wrap;connectable=0;fillColor=none;top=0;left=0;bottom=0;right=0;overflow=hidden;" parent="100" vertex="1">
          <mxGeometry width="45" height="20" as="geometry">
            <mxRectangle width="45" height="20" as="alternateBounds" />
          </mxGeometry>
        </mxCell>
        <mxCell id="103" style="shape=tableRow;horizontal=0;startSize=0;swimlaneHead=0;swimlaneBody=0;top=0;left=0;bottom=0;right=0;collapsible=0;dropTarget=0;fillColor=none;points=[[0,0.5],[1,0.5]];portConstraint=eastwest;" parent="93" vertex="1">
          <mxGeometry y="60" width="45" height="20" as="geometry" />
        </mxCell>
        <mxCell id="104" value="&lt;font face=&quot;Times New Roman&quot;&gt;5&lt;/font&gt;" style="shape=partialRectangle;html=1;whiteSpace=wrap;connectable=0;fillColor=none;top=0;left=0;bottom=0;right=0;overflow=hidden;strokeColor=#d6b656;" parent="103" vertex="1">
          <mxGeometry width="45" height="20" as="geometry">
            <mxRectangle width="45" height="20" as="alternateBounds" />
          </mxGeometry>
        </mxCell>
        <mxCell id="106" style="shape=tableRow;horizontal=0;startSize=0;swimlaneHead=0;swimlaneBody=0;top=0;left=0;bottom=0;right=0;collapsible=0;dropTarget=0;fillColor=none;points=[[0,0.5],[1,0.5]];portConstraint=eastwest;" parent="93" vertex="1">
          <mxGeometry y="80" width="45" height="20" as="geometry" />
        </mxCell>
        <mxCell id="107" value="&lt;font face=&quot;Times New Roman&quot;&gt;22&lt;/font&gt;" style="shape=partialRectangle;html=1;whiteSpace=wrap;connectable=0;fillColor=none;top=0;left=0;bottom=0;right=0;overflow=hidden;" parent="106" vertex="1">
          <mxGeometry width="45" height="20" as="geometry">
            <mxRectangle width="45" height="20" as="alternateBounds" />
          </mxGeometry>
        </mxCell>
        <mxCell id="109" style="shape=tableRow;horizontal=0;startSize=0;swimlaneHead=0;swimlaneBody=0;top=0;left=0;bottom=0;right=0;collapsible=0;dropTarget=0;fillColor=none;points=[[0,0.5],[1,0.5]];portConstraint=eastwest;" parent="93" vertex="1">
          <mxGeometry y="100" width="45" height="20" as="geometry" />
        </mxCell>
        <mxCell id="110" value="&lt;font face=&quot;Times New Roman&quot;&gt;12&lt;/font&gt;" style="shape=partialRectangle;html=1;whiteSpace=wrap;connectable=0;fillColor=none;top=0;left=0;bottom=0;right=0;overflow=hidden;" parent="109" vertex="1">
          <mxGeometry width="45" height="20" as="geometry">
            <mxRectangle width="45" height="20" as="alternateBounds" />
          </mxGeometry>
        </mxCell>
        <mxCell id="112" style="shape=tableRow;horizontal=0;startSize=0;swimlaneHead=0;swimlaneBody=0;top=0;left=0;bottom=0;right=0;collapsible=0;dropTarget=0;fillColor=none;points=[[0,0.5],[1,0.5]];portConstraint=eastwest;" parent="93" vertex="1">
          <mxGeometry y="120" width="45" height="20" as="geometry" />
        </mxCell>
        <mxCell id="113" value="&lt;font face=&quot;Times New Roman&quot;&gt;3&lt;/font&gt;" style="shape=partialRectangle;html=1;whiteSpace=wrap;connectable=0;fillColor=none;top=0;left=0;bottom=0;right=0;overflow=hidden;" parent="112" vertex="1">
          <mxGeometry width="45" height="20" as="geometry">
            <mxRectangle width="45" height="20" as="alternateBounds" />
          </mxGeometry>
        </mxCell>
        <mxCell id="115" style="shape=tableRow;horizontal=0;startSize=0;swimlaneHead=0;swimlaneBody=0;top=0;left=0;bottom=0;right=0;collapsible=0;dropTarget=0;fillColor=none;points=[[0,0.5],[1,0.5]];portConstraint=eastwest;" parent="93" vertex="1">
          <mxGeometry y="140" width="45" height="20" as="geometry" />
        </mxCell>
        <mxCell id="116" value="&lt;font face=&quot;Times New Roman&quot;&gt;6&lt;/font&gt;" style="shape=partialRectangle;html=1;whiteSpace=wrap;connectable=0;fillColor=none;top=0;left=0;bottom=0;right=0;overflow=hidden;" parent="115" vertex="1">
          <mxGeometry width="45" height="20" as="geometry">
            <mxRectangle width="45" height="20" as="alternateBounds" />
          </mxGeometry>
        </mxCell>
        <mxCell id="118" style="shape=tableRow;horizontal=0;startSize=0;swimlaneHead=0;swimlaneBody=0;top=0;left=0;bottom=0;right=0;collapsible=0;dropTarget=0;fillColor=none;points=[[0,0.5],[1,0.5]];portConstraint=eastwest;" parent="93" vertex="1">
          <mxGeometry y="160" width="45" height="20" as="geometry" />
        </mxCell>
        <mxCell id="119" value="&lt;font face=&quot;Times New Roman&quot;&gt;44&lt;/font&gt;" style="shape=partialRectangle;html=1;whiteSpace=wrap;connectable=0;fillColor=#cdeb8b;top=0;left=0;bottom=0;right=0;overflow=hidden;strokeColor=#36393d;" parent="118" vertex="1">
          <mxGeometry width="45" height="20" as="geometry">
            <mxRectangle width="45" height="20" as="alternateBounds" />
          </mxGeometry>
        </mxCell>
        <mxCell id="125" style="edgeStyle=orthogonalEdgeStyle;html=1;entryX=1;entryY=0.5;entryDx=0;entryDy=0;strokeColor=#66CC00;fontColor=#000000;startArrow=blockThin;startFill=1;endArrow=blockThin;endFill=1;exitX=0;exitY=0.5;exitDx=0;exitDy=0;" parent="1" target="1110" edge="1">
          <mxGeometry relative="1" as="geometry">
            <mxPoint x="167.74" y="1066.1399999999999" as="sourcePoint" />
            <mxPoint x="139.7399999999999" y="1012.9999999999995" as="targetPoint" />
            <Array as="points">
              <mxPoint x="148.74" y="1066.1399999999999" />
              <mxPoint x="148.74" y="1006.1399999999999" />
            </Array>
          </mxGeometry>
        </mxCell>
        <mxCell id="943" value="" style="shape=table;startSize=0;container=1;collapsible=0;childLayout=tableLayout;fontSize=24;strokeWidth=0.5;" parent="1" vertex="1">
          <mxGeometry x="73" y="788.99" width="303" height="25" as="geometry" />
        </mxCell>
        <mxCell id="944" value="" style="shape=tableRow;horizontal=0;startSize=0;swimlaneHead=0;swimlaneBody=0;strokeColor=inherit;top=0;left=0;bottom=0;right=0;collapsible=0;dropTarget=0;fillColor=none;points=[[0,0.5],[1,0.5]];portConstraint=eastwest;fontSize=24;" parent="943" vertex="1">
          <mxGeometry width="303" height="25" as="geometry" />
        </mxCell>
        <mxCell id="945" value="" style="shape=partialRectangle;html=1;whiteSpace=wrap;connectable=0;strokeColor=inherit;overflow=hidden;fillColor=none;top=0;left=0;bottom=0;right=0;pointerEvents=1;fontSize=24;strokeWidth=1;" parent="944" vertex="1">
          <mxGeometry width="84" height="25" as="geometry">
            <mxRectangle width="84" height="25" as="alternateBounds" />
          </mxGeometry>
        </mxCell>
        <mxCell id="946" value="&lt;font data-font-src=&quot;https://fonts.googleapis.com/css?family=Linux+Libertine&quot; style=&quot;&quot;&gt;&lt;br&gt;&lt;/font&gt;" style="shape=partialRectangle;html=1;whiteSpace=wrap;connectable=0;strokeColor=inherit;overflow=hidden;fillColor=none;top=0;left=0;bottom=0;right=0;pointerEvents=1;fontSize=24;" parent="944" vertex="1">
          <mxGeometry x="84" width="141" height="25" as="geometry">
            <mxRectangle width="141" height="25" as="alternateBounds" />
          </mxGeometry>
        </mxCell>
        <mxCell id="947" value="" style="shape=partialRectangle;html=1;whiteSpace=wrap;connectable=0;strokeColor=inherit;overflow=hidden;fillColor=none;top=0;left=0;bottom=0;right=0;pointerEvents=1;fontSize=24;" parent="944" vertex="1">
          <mxGeometry x="225" width="78" height="25" as="geometry">
            <mxRectangle width="78" height="25" as="alternateBounds" />
          </mxGeometry>
        </mxCell>
        <mxCell id="948" value="" style="shape=table;startSize=0;container=1;collapsible=0;childLayout=tableLayout;fontSize=24;strokeWidth=0.5;" parent="1" vertex="1">
          <mxGeometry x="75" y="844.5999999999999" width="302" height="25" as="geometry" />
        </mxCell>
        <mxCell id="949" value="" style="shape=tableRow;horizontal=0;startSize=0;swimlaneHead=0;swimlaneBody=0;strokeColor=inherit;top=0;left=0;bottom=0;right=0;collapsible=0;dropTarget=0;fillColor=none;points=[[0,0.5],[1,0.5]];portConstraint=eastwest;fontSize=24;" parent="948" vertex="1">
          <mxGeometry width="302" height="25" as="geometry" />
        </mxCell>
        <mxCell id="950" value="" style="shape=partialRectangle;html=1;whiteSpace=wrap;connectable=0;strokeColor=inherit;overflow=hidden;fillColor=none;top=0;left=0;bottom=0;right=0;pointerEvents=1;fontSize=24;strokeWidth=1;" parent="949" vertex="1">
          <mxGeometry width="82" height="25" as="geometry">
            <mxRectangle width="82" height="25" as="alternateBounds" />
          </mxGeometry>
        </mxCell>
        <mxCell id="951" value="&lt;font data-font-src=&quot;https://fonts.googleapis.com/css?family=Linux+Libertine&quot; style=&quot;font-size: 14px;&quot;&gt;&lt;br&gt;&lt;/font&gt;" style="shape=partialRectangle;html=1;whiteSpace=wrap;connectable=0;strokeColor=inherit;overflow=hidden;fillColor=none;top=0;left=0;bottom=0;right=0;pointerEvents=1;fontSize=24;" parent="949" vertex="1">
          <mxGeometry x="82" width="141" height="25" as="geometry">
            <mxRectangle width="141" height="25" as="alternateBounds" />
          </mxGeometry>
        </mxCell>
        <mxCell id="952" value="" style="shape=partialRectangle;html=1;whiteSpace=wrap;connectable=0;strokeColor=inherit;overflow=hidden;fillColor=none;top=0;left=0;bottom=0;right=0;pointerEvents=1;fontSize=24;" parent="949" vertex="1">
          <mxGeometry x="223" width="79" height="25" as="geometry">
            <mxRectangle width="79" height="25" as="alternateBounds" />
          </mxGeometry>
        </mxCell>
        <mxCell id="954" value="&lt;span style=&quot;color: rgb(0, 0, 0); font-family: &amp;quot;Linux Libertine&amp;quot;; font-style: normal; font-variant-ligatures: normal; font-variant-caps: normal; font-weight: 400; letter-spacing: normal; orphans: 2; text-align: center; text-indent: 0px; text-transform: none; widows: 2; word-spacing: 0px; -webkit-text-stroke-width: 0px; text-decoration-thickness: initial; text-decoration-style: initial; text-decoration-color: initial; float: none; display: inline !important;&quot;&gt;&lt;font style=&quot;font-size: 12px;&quot;&gt;Accumulate&lt;/font&gt;&lt;/span&gt;" style="text;whiteSpace=wrap;html=1;fontSize=12;fontFamily=Linux Libertine;" parent="1" vertex="1">
          <mxGeometry x="195" y="765" width="68" height="23.01" as="geometry" />
        </mxCell>
        <mxCell id="955" value="&lt;span style=&quot;color: rgb(0, 0, 0); font-family: &amp;quot;Linux Libertine&amp;quot;; font-style: normal; font-variant-ligatures: normal; font-variant-caps: normal; font-weight: 400; letter-spacing: normal; orphans: 2; text-align: center; text-indent: 0px; text-transform: none; widows: 2; word-spacing: 0px; -webkit-text-stroke-width: 0px; text-decoration-thickness: initial; text-decoration-style: initial; text-decoration-color: initial; float: none; display: inline !important;&quot;&gt;&lt;font style=&quot;font-size: 12px;&quot;&gt;Write&lt;/font&gt;&lt;/span&gt;" style="text;whiteSpace=wrap;html=1;fontSize=12;fontFamily=Linux Libertine;" parent="1" vertex="1">
          <mxGeometry x="320.93" y="765.01" width="36.07" height="24" as="geometry" />
        </mxCell>
        <mxCell id="956" value="&lt;span style=&quot;color: rgb(0, 0, 0); font-family: &amp;quot;Linux Libertine&amp;quot;; font-style: normal; font-variant-ligatures: normal; font-variant-caps: normal; font-weight: 400; letter-spacing: normal; orphans: 2; text-align: center; text-indent: 0px; text-transform: none; widows: 2; word-spacing: 0px; -webkit-text-stroke-width: 0px; text-decoration-thickness: initial; text-decoration-style: initial; text-decoration-color: initial; float: none; display: inline !important;&quot;&gt;&lt;font style=&quot;font-size: 12px;&quot;&gt;Read&lt;/font&gt;&lt;/span&gt;" style="text;whiteSpace=wrap;html=1;fontSize=12;fontFamily=Linux Libertine;" parent="1" vertex="1">
          <mxGeometry x="100" y="765.01" width="32" height="24" as="geometry" />
        </mxCell>
        <mxCell id="960" value="&lt;span style=&quot;color: rgb(0, 0, 0); font-family: &amp;quot;Linux Libertine&amp;quot;; font-size: 14px; font-style: normal; font-variant-ligatures: normal; font-variant-caps: normal; font-weight: 400; letter-spacing: normal; orphans: 2; text-align: center; text-indent: 0px; text-transform: none; widows: 2; word-spacing: 0px; -webkit-text-stroke-width: 0px; text-decoration-thickness: initial; text-decoration-style: initial; text-decoration-color: initial; float: none; display: inline !important;&quot;&gt;thread0&lt;/span&gt;" style="text;whiteSpace=wrap;html=1;fontSize=12;fontFamily=Linux Libertine;" parent="1" vertex="1">
          <mxGeometry x="16" y="788.85" width="66" height="28.02" as="geometry" />
        </mxCell>
        <mxCell id="961" value="&lt;span style=&quot;color: rgb(0, 0, 0); font-family: &amp;quot;Linux Libertine&amp;quot;; font-size: 14px; font-style: normal; font-variant-ligatures: normal; font-variant-caps: normal; font-weight: 400; letter-spacing: normal; orphans: 2; text-align: center; text-indent: 0px; text-transform: none; widows: 2; word-spacing: 0px; -webkit-text-stroke-width: 0px; text-decoration-thickness: initial; text-decoration-style: initial; text-decoration-color: initial; float: none; display: inline !important;&quot;&gt;thread2&lt;/span&gt;" style="text;whiteSpace=wrap;html=1;fontSize=12;fontFamily=Linux Libertine;" parent="1" vertex="1">
          <mxGeometry x="16" y="841.82" width="63" height="30" as="geometry" />
        </mxCell>
        <mxCell id="1053" value="&lt;font color=&quot;#ff3333&quot; data-font-src=&quot;https://fonts.googleapis.com/css?family=Linux+Libertine&quot; face=&quot;Linux Libertine&quot;&gt;forward indices&amp;nbsp;&amp;nbsp;&lt;/font&gt;" style="text;html=1;strokeColor=none;fillColor=none;align=center;verticalAlign=middle;whiteSpace=wrap;rounded=0;fontColor=#000000;fontFamily=Times New Roman;" parent="1" vertex="1">
          <mxGeometry x="243.11" y="1093.06" width="113.89" height="23" as="geometry" />
        </mxCell>
        <mxCell id="1108" value="" style="rounded=0;whiteSpace=wrap;html=1;labelBackgroundColor=#CCE5FF;fontFamily=Linux Libertine;fontSource=https%3A%2F%2Ffonts.googleapis.com%2Fcss%3Ffamily%3DLinux%2BLibertine;fillColor=none;" parent="1" vertex="1">
          <mxGeometry x="83.74" y="956.1999999999998" width="45" height="20" as="geometry" />
        </mxCell>
        <mxCell id="1110" value="" style="rounded=0;whiteSpace=wrap;html=1;labelBackgroundColor=#CCE5FF;fontFamily=Linux Libertine;fontSource=https%3A%2F%2Ffonts.googleapis.com%2Fcss%3Ffamily%3DLinux%2BLibertine;fillColor=none;" parent="1" vertex="1">
          <mxGeometry x="83.74" y="995.3799999999997" width="45" height="20.38" as="geometry" />
        </mxCell>
        <mxCell id="1156" style="shape=tableRow;horizontal=0;startSize=0;swimlaneHead=0;swimlaneBody=0;top=0;left=0;bottom=0;right=0;collapsible=0;dropTarget=0;fillColor=none;points=[[0,0.5],[1,0.5]];portConstraint=eastwest;" parent="1" vertex="1">
          <mxGeometry x="291.74" y="1057.6399999999999" width="52.53" height="20" as="geometry" />
        </mxCell>
        <mxCell id="1157" value="" style="shape=partialRectangle;html=1;whiteSpace=wrap;connectable=0;fillColor=none;top=0;left=0;bottom=0;right=0;overflow=hidden;strokeColor=#36393d;" parent="1156" vertex="1">
          <mxGeometry width="53" height="20" as="geometry">
            <mxRectangle width="53" height="20" as="alternateBounds" />
          </mxGeometry>
        </mxCell>
        <mxCell id="1158" value="" style="shape=table;html=1;whiteSpace=wrap;startSize=0;container=1;collapsible=0;childLayout=tableLayout;direction=east;fillColor=none;" parent="1" vertex="1">
          <mxGeometry x="239" y="909.8799999999999" width="45" height="180" as="geometry" />
        </mxCell>
        <mxCell id="1159" style="shape=tableRow;horizontal=0;startSize=0;swimlaneHead=0;swimlaneBody=0;top=0;left=0;bottom=0;right=0;collapsible=0;dropTarget=0;fillColor=none;points=[[0,0.5],[1,0.5]];portConstraint=eastwest;" parent="1158" vertex="1">
          <mxGeometry width="45" height="20" as="geometry" />
        </mxCell>
        <mxCell id="1160" value="&lt;font data-font-src=&quot;https://fonts.googleapis.com/css?family=Linux+Libertine&quot; face=&quot;Linux Libertine&quot;&gt;&lt;i&gt;value&lt;/i&gt;&lt;/font&gt;" style="shape=partialRectangle;html=1;whiteSpace=wrap;connectable=0;fillColor=none;top=0;left=0;bottom=0;right=0;overflow=hidden;" parent="1159" vertex="1">
          <mxGeometry width="45" height="20" as="geometry">
            <mxRectangle width="45" height="20" as="alternateBounds" />
          </mxGeometry>
        </mxCell>
        <mxCell id="1161" style="shape=tableRow;horizontal=0;startSize=0;swimlaneHead=0;swimlaneBody=0;top=0;left=0;bottom=0;right=0;collapsible=0;dropTarget=0;fillColor=none;points=[[0,0.5],[1,0.5]];portConstraint=eastwest;" parent="1158" vertex="1">
          <mxGeometry y="20" width="45" height="20" as="geometry" />
        </mxCell>
        <mxCell id="1162" value="" style="shape=partialRectangle;html=1;whiteSpace=wrap;connectable=0;fillColor=none;top=0;left=0;bottom=0;right=0;overflow=hidden;" parent="1161" vertex="1">
          <mxGeometry width="45" height="20" as="geometry">
            <mxRectangle width="45" height="20" as="alternateBounds" />
          </mxGeometry>
        </mxCell>
        <mxCell id="1163" style="shape=tableRow;horizontal=0;startSize=0;swimlaneHead=0;swimlaneBody=0;top=0;left=0;bottom=0;right=0;collapsible=0;dropTarget=0;fillColor=none;points=[[0,0.5],[1,0.5]];portConstraint=eastwest;" parent="1158" vertex="1">
          <mxGeometry y="40" width="45" height="20" as="geometry" />
        </mxCell>
        <mxCell id="1164" value="" style="shape=partialRectangle;html=1;whiteSpace=wrap;connectable=0;fillColor=none;top=0;left=0;bottom=0;right=0;overflow=hidden;" parent="1163" vertex="1">
          <mxGeometry width="45" height="20" as="geometry">
            <mxRectangle width="45" height="20" as="alternateBounds" />
          </mxGeometry>
        </mxCell>
        <mxCell id="1165" style="shape=tableRow;horizontal=0;startSize=0;swimlaneHead=0;swimlaneBody=0;top=0;left=0;bottom=0;right=0;collapsible=0;dropTarget=0;fillColor=none;points=[[0,0.5],[1,0.5]];portConstraint=eastwest;" parent="1158" vertex="1">
          <mxGeometry y="60" width="45" height="20" as="geometry" />
        </mxCell>
        <mxCell id="1166" value="&lt;span style=&quot;border-color: var(--border-color); font-size: 14px; font-family: &amp;quot;Linux Libertine&amp;quot;;&quot;&gt;R&lt;/span&gt;&lt;span style=&quot;border-color: var(--border-color); font-size: 14px; font-family: &amp;quot;Linux Libertine&amp;quot;; background-color: rgb(255, 242, 204);&quot;&gt;[31]&lt;/span&gt;" style="shape=partialRectangle;html=1;whiteSpace=wrap;connectable=0;fillColor=none;top=0;left=0;bottom=0;right=0;overflow=hidden;strokeColor=#d6b656;" parent="1165" vertex="1">
          <mxGeometry width="45" height="20" as="geometry">
            <mxRectangle width="45" height="20" as="alternateBounds" />
          </mxGeometry>
        </mxCell>
        <mxCell id="1167" style="shape=tableRow;horizontal=0;startSize=0;swimlaneHead=0;swimlaneBody=0;top=0;left=0;bottom=0;right=0;collapsible=0;dropTarget=0;fillColor=none;points=[[0,0.5],[1,0.5]];portConstraint=eastwest;" parent="1158" vertex="1">
          <mxGeometry y="80" width="45" height="20" as="geometry" />
        </mxCell>
        <mxCell id="1168" value="" style="shape=partialRectangle;html=1;whiteSpace=wrap;connectable=0;fillColor=none;top=0;left=0;bottom=0;right=0;overflow=hidden;" parent="1167" vertex="1">
          <mxGeometry width="45" height="20" as="geometry">
            <mxRectangle width="45" height="20" as="alternateBounds" />
          </mxGeometry>
        </mxCell>
        <mxCell id="1169" style="shape=tableRow;horizontal=0;startSize=0;swimlaneHead=0;swimlaneBody=0;top=0;left=0;bottom=0;right=0;collapsible=0;dropTarget=0;fillColor=none;points=[[0,0.5],[1,0.5]];portConstraint=eastwest;" parent="1158" vertex="1">
          <mxGeometry y="100" width="45" height="20" as="geometry" />
        </mxCell>
        <mxCell id="1170" value="&lt;span style=&quot;border-color: var(--border-color); font-size: 14px; font-family: &amp;quot;Linux Libertine&amp;quot;;&quot;&gt;R&lt;/span&gt;&lt;span style=&quot;border-color: var(--border-color); font-size: 14px; font-family: &amp;quot;Linux Libertine&amp;quot;; background-color: rgb(102, 204, 0);&quot;&gt;[44]&lt;/span&gt;" style="shape=partialRectangle;html=1;whiteSpace=wrap;connectable=0;fillColor=none;top=0;left=0;bottom=0;right=0;overflow=hidden;" parent="1169" vertex="1">
          <mxGeometry width="45" height="20" as="geometry">
            <mxRectangle width="45" height="20" as="alternateBounds" />
          </mxGeometry>
        </mxCell>
        <mxCell id="1171" style="shape=tableRow;horizontal=0;startSize=0;swimlaneHead=0;swimlaneBody=0;top=0;left=0;bottom=0;right=0;collapsible=0;dropTarget=0;fillColor=none;points=[[0,0.5],[1,0.5]];portConstraint=eastwest;" parent="1158" vertex="1">
          <mxGeometry y="120" width="45" height="20" as="geometry" />
        </mxCell>
        <mxCell id="1172" value="" style="shape=partialRectangle;html=1;whiteSpace=wrap;connectable=0;fillColor=none;top=0;left=0;bottom=0;right=0;overflow=hidden;" parent="1171" vertex="1">
          <mxGeometry width="45" height="20" as="geometry">
            <mxRectangle width="45" height="20" as="alternateBounds" />
          </mxGeometry>
        </mxCell>
        <mxCell id="1173" style="shape=tableRow;horizontal=0;startSize=0;swimlaneHead=0;swimlaneBody=0;top=0;left=0;bottom=0;right=0;collapsible=0;dropTarget=0;fillColor=none;points=[[0,0.5],[1,0.5]];portConstraint=eastwest;" parent="1158" vertex="1">
          <mxGeometry y="140" width="45" height="20" as="geometry" />
        </mxCell>
        <mxCell id="1174" value="" style="shape=partialRectangle;html=1;whiteSpace=wrap;connectable=0;fillColor=none;top=0;left=0;bottom=0;right=0;overflow=hidden;" parent="1173" vertex="1">
          <mxGeometry width="45" height="20" as="geometry">
            <mxRectangle width="45" height="20" as="alternateBounds" />
          </mxGeometry>
        </mxCell>
        <mxCell id="1175" style="shape=tableRow;horizontal=0;startSize=0;swimlaneHead=0;swimlaneBody=0;top=0;left=0;bottom=0;right=0;collapsible=0;dropTarget=0;fillColor=none;points=[[0,0.5],[1,0.5]];portConstraint=eastwest;" parent="1158" vertex="1">
          <mxGeometry y="160" width="45" height="20" as="geometry" />
        </mxCell>
        <mxCell id="1176" value="" style="shape=partialRectangle;html=1;whiteSpace=wrap;connectable=0;fillColor=none;top=0;left=0;bottom=0;right=0;overflow=hidden;strokeColor=#36393d;" parent="1175" vertex="1">
          <mxGeometry width="45" height="20" as="geometry">
            <mxRectangle width="45" height="20" as="alternateBounds" />
          </mxGeometry>
        </mxCell>
        <mxCell id="1204" value="&lt;span style=&quot;color: rgb(0, 0, 0); font-family: &amp;quot;Linux Libertine&amp;quot;; font-variant-ligatures: normal; font-variant-caps: normal; font-weight: 400; letter-spacing: normal; orphans: 2; text-align: center; text-indent: 0px; text-transform: none; widows: 2; word-spacing: 0px; -webkit-text-stroke-width: 0px; text-decoration-thickness: initial; text-decoration-style: initial; text-decoration-color: initial; float: none; display: inline !important;&quot;&gt;&lt;font style=&quot;font-size: 12px;&quot;&gt;&lt;i style=&quot;&quot;&gt;time 1&lt;/i&gt;&lt;/font&gt;&lt;/span&gt;" style="text;whiteSpace=wrap;html=1;fontSize=12;fontFamily=Linux Libertine;" parent="1" vertex="1">
          <mxGeometry x="128.74" y="1089.8799999999999" width="45" height="24.07" as="geometry" />
        </mxCell>
        <mxCell id="1205" value="&lt;span style=&quot;color: rgb(0, 0, 0); font-family: &amp;quot;Linux Libertine&amp;quot;; font-variant-ligatures: normal; font-variant-caps: normal; font-weight: 400; letter-spacing: normal; orphans: 2; text-align: center; text-indent: 0px; text-transform: none; widows: 2; word-spacing: 0px; -webkit-text-stroke-width: 0px; text-decoration-thickness: initial; text-decoration-style: initial; text-decoration-color: initial; float: none; display: inline !important;&quot;&gt;&lt;font style=&quot;font-size: 12px;&quot;&gt;&lt;i style=&quot;&quot;&gt;time 2&lt;/i&gt;&lt;/font&gt;&lt;/span&gt;" style="text;whiteSpace=wrap;html=1;fontSize=12;fontFamily=Linux Libertine;" parent="1" vertex="1">
          <mxGeometry x="282" y="881" width="45" height="24.07" as="geometry" />
        </mxCell>
        <mxCell id="1225" value="" style="shape=table;html=1;whiteSpace=wrap;startSize=0;container=1;collapsible=0;childLayout=tableLayout;direction=east;fillColor=none;" parent="1" vertex="1">
          <mxGeometry x="318" y="909.8799999999999" width="45" height="180" as="geometry" />
        </mxCell>
        <mxCell id="1226" style="shape=tableRow;horizontal=0;startSize=0;swimlaneHead=0;swimlaneBody=0;top=0;left=0;bottom=0;right=0;collapsible=0;dropTarget=0;fillColor=none;points=[[0,0.5],[1,0.5]];portConstraint=eastwest;" parent="1225" vertex="1">
          <mxGeometry width="45" height="20" as="geometry" />
        </mxCell>
        <mxCell id="1227" value="&lt;font data-font-src=&quot;https://fonts.googleapis.com/css?family=Linux+Libertine&quot; face=&quot;Linux Libertine&quot;&gt;&lt;i&gt;value&lt;/i&gt;&lt;/font&gt;" style="shape=partialRectangle;html=1;whiteSpace=wrap;connectable=0;fillColor=none;top=0;left=0;bottom=0;right=0;overflow=hidden;" parent="1226" vertex="1">
          <mxGeometry width="45" height="20" as="geometry">
            <mxRectangle width="45" height="20" as="alternateBounds" />
          </mxGeometry>
        </mxCell>
        <mxCell id="1228" style="shape=tableRow;horizontal=0;startSize=0;swimlaneHead=0;swimlaneBody=0;top=0;left=0;bottom=0;right=0;collapsible=0;dropTarget=0;fillColor=none;points=[[0,0.5],[1,0.5]];portConstraint=eastwest;" parent="1225" vertex="1">
          <mxGeometry y="20" width="45" height="20" as="geometry" />
        </mxCell>
        <mxCell id="1229" value="&lt;font style=&quot;font-size: 14px;&quot;&gt;&lt;span style=&quot;font-family: &amp;quot;Linux Libertine&amp;quot;;&quot;&gt;R&lt;/span&gt;&lt;span style=&quot;border-color: var(--border-color); font-family: &amp;quot;Linux Libertine&amp;quot;; background-color: rgb(255, 242, 204);&quot;&gt;[31]&lt;/span&gt;&lt;/font&gt;" style="shape=partialRectangle;html=1;whiteSpace=wrap;connectable=0;fillColor=none;top=0;left=0;bottom=0;right=0;overflow=hidden;" parent="1228" vertex="1">
          <mxGeometry width="45" height="20" as="geometry">
            <mxRectangle width="45" height="20" as="alternateBounds" />
          </mxGeometry>
        </mxCell>
        <mxCell id="1230" style="shape=tableRow;horizontal=0;startSize=0;swimlaneHead=0;swimlaneBody=0;top=0;left=0;bottom=0;right=0;collapsible=0;dropTarget=0;fillColor=none;points=[[0,0.5],[1,0.5]];portConstraint=eastwest;" parent="1225" vertex="1">
          <mxGeometry y="40" width="45" height="20" as="geometry" />
        </mxCell>
        <mxCell id="1231" value="" style="shape=partialRectangle;html=1;whiteSpace=wrap;connectable=0;fillColor=none;top=0;left=0;bottom=0;right=0;overflow=hidden;" parent="1230" vertex="1">
          <mxGeometry width="45" height="20" as="geometry">
            <mxRectangle width="45" height="20" as="alternateBounds" />
          </mxGeometry>
        </mxCell>
        <mxCell id="1232" style="shape=tableRow;horizontal=0;startSize=0;swimlaneHead=0;swimlaneBody=0;top=0;left=0;bottom=0;right=0;collapsible=0;dropTarget=0;fillColor=none;points=[[0,0.5],[1,0.5]];portConstraint=eastwest;" parent="1225" vertex="1">
          <mxGeometry y="60" width="45" height="20" as="geometry" />
        </mxCell>
        <mxCell id="1233" value="" style="shape=partialRectangle;html=1;whiteSpace=wrap;connectable=0;fillColor=none;top=0;left=0;bottom=0;right=0;overflow=hidden;strokeColor=#d6b656;" parent="1232" vertex="1">
          <mxGeometry width="45" height="20" as="geometry">
            <mxRectangle width="45" height="20" as="alternateBounds" />
          </mxGeometry>
        </mxCell>
        <mxCell id="1234" style="shape=tableRow;horizontal=0;startSize=0;swimlaneHead=0;swimlaneBody=0;top=0;left=0;bottom=0;right=0;collapsible=0;dropTarget=0;fillColor=none;points=[[0,0.5],[1,0.5]];portConstraint=eastwest;" parent="1225" vertex="1">
          <mxGeometry y="80" width="45" height="20" as="geometry" />
        </mxCell>
        <mxCell id="1235" value="" style="shape=partialRectangle;html=1;whiteSpace=wrap;connectable=0;fillColor=none;top=0;left=0;bottom=0;right=0;overflow=hidden;" parent="1234" vertex="1">
          <mxGeometry width="45" height="20" as="geometry">
            <mxRectangle width="45" height="20" as="alternateBounds" />
          </mxGeometry>
        </mxCell>
        <mxCell id="1236" style="shape=tableRow;horizontal=0;startSize=0;swimlaneHead=0;swimlaneBody=0;top=0;left=0;bottom=0;right=0;collapsible=0;dropTarget=0;fillColor=none;points=[[0,0.5],[1,0.5]];portConstraint=eastwest;" parent="1225" vertex="1">
          <mxGeometry y="100" width="45" height="20" as="geometry" />
        </mxCell>
        <mxCell id="1237" value="" style="shape=partialRectangle;html=1;whiteSpace=wrap;connectable=0;fillColor=none;top=0;left=0;bottom=0;right=0;overflow=hidden;" parent="1236" vertex="1">
          <mxGeometry width="45" height="20" as="geometry">
            <mxRectangle width="45" height="20" as="alternateBounds" />
          </mxGeometry>
        </mxCell>
        <mxCell id="1238" style="shape=tableRow;horizontal=0;startSize=0;swimlaneHead=0;swimlaneBody=0;top=0;left=0;bottom=0;right=0;collapsible=0;dropTarget=0;fillColor=none;points=[[0,0.5],[1,0.5]];portConstraint=eastwest;" parent="1225" vertex="1">
          <mxGeometry y="120" width="45" height="20" as="geometry" />
        </mxCell>
        <mxCell id="1239" value="" style="shape=partialRectangle;html=1;whiteSpace=wrap;connectable=0;fillColor=none;top=0;left=0;bottom=0;right=0;overflow=hidden;" parent="1238" vertex="1">
          <mxGeometry width="45" height="20" as="geometry">
            <mxRectangle width="45" height="20" as="alternateBounds" />
          </mxGeometry>
        </mxCell>
        <mxCell id="1240" style="shape=tableRow;horizontal=0;startSize=0;swimlaneHead=0;swimlaneBody=0;top=0;left=0;bottom=0;right=0;collapsible=0;dropTarget=0;fillColor=none;points=[[0,0.5],[1,0.5]];portConstraint=eastwest;" parent="1225" vertex="1">
          <mxGeometry y="140" width="45" height="20" as="geometry" />
        </mxCell>
        <mxCell id="1241" value="" style="shape=partialRectangle;html=1;whiteSpace=wrap;connectable=0;fillColor=none;top=0;left=0;bottom=0;right=0;overflow=hidden;" parent="1240" vertex="1">
          <mxGeometry width="45" height="20" as="geometry">
            <mxRectangle width="45" height="20" as="alternateBounds" />
          </mxGeometry>
        </mxCell>
        <mxCell id="1242" style="shape=tableRow;horizontal=0;startSize=0;swimlaneHead=0;swimlaneBody=0;top=0;left=0;bottom=0;right=0;collapsible=0;dropTarget=0;fillColor=none;points=[[0,0.5],[1,0.5]];portConstraint=eastwest;" parent="1225" vertex="1">
          <mxGeometry y="160" width="45" height="20" as="geometry" />
        </mxCell>
        <mxCell id="1243" value="&lt;span style=&quot;border-color: var(--border-color); font-size: 14px; font-family: &amp;quot;Linux Libertine&amp;quot;;&quot;&gt;R&lt;/span&gt;&lt;span style=&quot;border-color: var(--border-color); font-size: 14px; font-family: &amp;quot;Linux Libertine&amp;quot;; background-color: rgb(102, 204, 0);&quot;&gt;[44]&lt;/span&gt;" style="shape=partialRectangle;html=1;whiteSpace=wrap;connectable=0;fillColor=none;top=0;left=0;bottom=0;right=0;overflow=hidden;strokeColor=#36393d;" parent="1242" vertex="1">
          <mxGeometry width="45" height="20" as="geometry">
            <mxRectangle width="45" height="20" as="alternateBounds" />
          </mxGeometry>
        </mxCell>
        <mxCell id="1248" style="edgeStyle=orthogonalEdgeStyle;html=1;entryX=1;entryY=0.5;entryDx=0;entryDy=0;strokeColor=#FFB366;fontFamily=Linux Libertine;fontSource=https%3A%2F%2Ffonts.googleapis.com%2Fcss%3Ffamily%3DLinux%2BLibertine;startArrow=blockThin;startFill=1;endArrow=blockThin;endFill=1;" parent="1" source="1246" target="1108" edge="1">
          <mxGeometry relative="1" as="geometry" />
        </mxCell>
        <mxCell id="1246" value="" style="rounded=0;whiteSpace=wrap;html=1;labelBackgroundColor=#FFCCCC;fontFamily=Linux Libertine;fontSource=https%3A%2F%2Ffonts.googleapis.com%2Fcss%3Ffamily%3DLinux%2BLibertine;fillColor=none;" parent="1" vertex="1">
          <mxGeometry x="167.51" y="916.1399999999999" width="45" height="20" as="geometry" />
        </mxCell>
        <mxCell id="1247" value="" style="rounded=0;whiteSpace=wrap;html=1;labelBackgroundColor=#FFCCCC;fontFamily=Linux Libertine;fontSource=https%3A%2F%2Ffonts.googleapis.com%2Fcss%3Ffamily%3DLinux%2BLibertine;fillColor=none;" parent="1" vertex="1">
          <mxGeometry x="167.74" y="1056.1399999999999" width="45" height="20" as="geometry" />
        </mxCell>
        <mxCell id="1249" style="edgeStyle=orthogonalEdgeStyle;html=1;entryX=1;entryY=0.5;entryDx=0;entryDy=0;strokeColor=#FFB366;fontFamily=Linux Libertine;fontSource=https%3A%2F%2Ffonts.googleapis.com%2Fcss%3Ffamily%3DLinux%2BLibertine;fontSize=14;startArrow=blockThin;startFill=1;endArrow=blockThin;endFill=1;" parent="1" source="1228" target="1165" edge="1">
          <mxGeometry relative="1" as="geometry" />
        </mxCell>
        <mxCell id="967" value="&lt;span style=&quot;font-family: &amp;quot;Linux Libertine&amp;quot;; font-style: normal; font-variant-ligatures: normal; font-variant-caps: normal; font-weight: 400; letter-spacing: normal; orphans: 2; text-align: center; text-indent: 0px; text-transform: none; widows: 2; word-spacing: 0px; -webkit-text-stroke-width: 0px; text-decoration-thickness: initial; text-decoration-style: initial; text-decoration-color: initial; float: none; display: inline !important;&quot;&gt;&lt;font color=&quot;#ff3333&quot; style=&quot;font-size: 12px;&quot;&gt;Forward R[31] value&lt;/font&gt;&lt;/span&gt;" style="text;whiteSpace=wrap;html=1;fontSize=12;fontFamily=Linux Libertine;" parent="1" vertex="1">
          <mxGeometry x="246" y="820" width="104" height="26.7" as="geometry" />
        </mxCell>
        <mxCell id="Us-EvBeyhVD1tXAe2ULp-1252" style="edgeStyle=orthogonalEdgeStyle;rounded=1;orthogonalLoop=1;jettySize=auto;html=1;entryX=0.374;entryY=0.034;entryDx=0;entryDy=0;entryPerimeter=0;curved=0;exitX=0.862;exitY=0.978;exitDx=0;exitDy=0;exitPerimeter=0;fontColor=#FF0000;strokeColor=#FF0000;" parent="1" source="944" target="949" edge="1">
          <mxGeometry relative="1" as="geometry">
            <mxPoint x="365.53" y="819.66" as="sourcePoint" />
            <mxPoint x="202.24000000000004" y="854.68" as="targetPoint" />
            <Array as="points">
              <mxPoint x="334" y="821" />
              <mxPoint x="187" y="821" />
            </Array>
          </mxGeometry>
        </mxCell>
        <mxCell id="Us-EvBeyhVD1tXAe2ULp-1253" value="&lt;font color=&quot;#ff3333&quot;&gt;&lt;span style=&quot;font-family: &amp;quot;Linux Libertine&amp;quot;; font-size: 12px; font-style: normal; font-variant-ligatures: normal; font-variant-caps: normal; font-weight: 400; letter-spacing: normal; orphans: 2; text-indent: 0px; text-transform: none; widows: 2; word-spacing: 0px; -webkit-text-stroke-width: 0px; white-space: normal; text-decoration-thickness: initial; text-decoration-style: initial; text-decoration-color: initial; float: none; display: inline !important;&quot;&gt;Compare &lt;/span&gt;&lt;span style=&quot;font-family: &amp;quot;Linux Libertine&amp;quot;; font-size: 12px; font-variant-ligatures: normal; font-variant-caps: normal; font-weight: 400; letter-spacing: normal; orphans: 2; text-indent: 0px; text-transform: none; widows: 2; word-spacing: 0px; -webkit-text-stroke-width: 0px; white-space: normal; text-decoration-thickness: initial; text-decoration-style: initial; text-decoration-color: initial; float: none; display: inline !important;&quot;&gt;&lt;i&gt;src&lt;/i&gt;&lt;/span&gt;&lt;/font&gt;&lt;div&gt;&lt;span style=&quot;font-family: &amp;quot;Linux Libertine&amp;quot;; font-size: 12px; font-style: normal; font-variant-ligatures: normal; font-variant-caps: normal; font-weight: 400; letter-spacing: normal; orphans: 2; text-indent: 0px; text-transform: none; widows: 2; word-spacing: 0px; -webkit-text-stroke-width: 0px; white-space: normal; text-decoration-thickness: initial; text-decoration-style: initial; text-decoration-color: initial; float: none; display: inline !important;&quot;&gt;&lt;font color=&quot;#ff3333&quot;&gt;between threads&lt;/font&gt;&lt;/span&gt;&lt;/div&gt;" style="text;whiteSpace=wrap;html=1;align=center;" parent="1" vertex="1">
          <mxGeometry x="6" y="968.1399999999999" width="69" height="36" as="geometry" />
        </mxCell>
        <mxCell id="1250" value="&lt;span style=&quot;color: rgb(0, 0, 0); font-family: &amp;quot;Linux Libertine&amp;quot;; font-style: normal; font-variant-ligatures: normal; font-variant-caps: normal; font-weight: 400; letter-spacing: normal; orphans: 2; text-align: center; text-indent: 0px; text-transform: none; widows: 2; word-spacing: 0px; -webkit-text-stroke-width: 0px; background-color: rgb(251, 251, 251); text-decoration-thickness: initial; text-decoration-style: initial; text-decoration-color: initial; float: none; display: inline !important;&quot;&gt;&lt;font style=&quot;font-size: 12px;&quot;&gt;R[9]&lt;/font&gt;&lt;/span&gt;" style="text;whiteSpace=wrap;html=1;" parent="1" vertex="1">
          <mxGeometry x="103.5" y="788.99" width="30" height="28" as="geometry" />
        </mxCell>
        <mxCell id="1251" value="&lt;span style=&quot;color: rgb(0, 0, 0); font-family: &amp;quot;Linux Libertine&amp;quot;; font-style: normal; font-variant-ligatures: normal; font-variant-caps: normal; font-weight: 400; letter-spacing: normal; orphans: 2; text-align: center; text-indent: 0px; text-transform: none; widows: 2; word-spacing: 0px; -webkit-text-stroke-width: 0px; background-color: rgb(251, 251, 251); text-decoration-thickness: initial; text-decoration-style: initial; text-decoration-color: initial; float: none; display: inline !important;&quot;&gt;&lt;font style=&quot;font-size: 12px;&quot;&gt;R[10] += V[1] * 1&amp;nbsp;&lt;/font&gt;&lt;/span&gt;" style="text;whiteSpace=wrap;html=1;fontSize=12;" parent="1" vertex="1">
          <mxGeometry x="184" y="788.99" width="103" height="26.02" as="geometry" />
        </mxCell>
        <mxCell id="1252" value="&lt;font style=&quot;font-size: 12px;&quot;&gt;&lt;span style=&quot;color: rgb(0, 0, 0); font-family: &amp;quot;Linux Libertine&amp;quot;; font-style: normal; font-variant-ligatures: normal; font-variant-caps: normal; font-weight: 400; letter-spacing: normal; orphans: 2; text-align: center; text-indent: 0px; text-transform: none; widows: 2; word-spacing: 0px; -webkit-text-stroke-width: 0px; background-color: rgb(251, 251, 251); text-decoration-thickness: initial; text-decoration-style: initial; text-decoration-color: initial; float: none; display: inline !important;&quot;&gt;R&lt;/span&gt;&lt;span style=&quot;border-color: var(--border-color); color: rgb(0, 0, 0); font-family: &amp;quot;Linux Libertine&amp;quot;; font-style: normal; font-variant-ligatures: normal; font-variant-caps: normal; font-weight: 400; letter-spacing: normal; orphans: 2; text-align: center; text-indent: 0px; text-transform: none; widows: 2; word-spacing: 0px; -webkit-text-stroke-width: 0px; text-decoration-thickness: initial; text-decoration-style: initial; text-decoration-color: initial; background-color: rgb(255, 242, 204);&quot;&gt;[31]&lt;/span&gt;&lt;/font&gt;" style="text;whiteSpace=wrap;html=1;fontSize=12;" parent="1" vertex="1">
          <mxGeometry x="320.9304645647321" y="788.0119047619048" width="59" height="39" as="geometry" />
        </mxCell>
        <mxCell id="1253" value="&lt;span style=&quot;color: rgb(0, 0, 0); font-family: &amp;quot;Linux Libertine&amp;quot;; font-style: normal; font-variant-ligatures: normal; font-variant-caps: normal; font-weight: 400; letter-spacing: normal; orphans: 2; text-align: center; text-indent: 0px; text-transform: none; widows: 2; word-spacing: 0px; -webkit-text-stroke-width: 0px; text-decoration-thickness: initial; text-decoration-style: initial; text-decoration-color: initial; float: none; display: inline !important;&quot;&gt;&lt;font style=&quot;font-size: 12px;&quot;&gt;R[22]&lt;/font&gt;&lt;/span&gt;" style="text;whiteSpace=wrap;html=1;fontSize=12;" parent="1" vertex="1">
          <mxGeometry x="101" y="844.5999999999999" width="37" height="21.7" as="geometry" />
        </mxCell>
        <mxCell id="1254" value="&lt;font style=&quot;font-size: 12px;&quot;&gt;&lt;span style=&quot;color: rgb(0, 0, 0); font-family: &amp;quot;Linux Libertine&amp;quot;; font-style: normal; font-variant-ligatures: normal; font-variant-caps: normal; font-weight: 400; letter-spacing: normal; orphans: 2; text-align: center; text-indent: 0px; text-transform: none; widows: 2; word-spacing: 0px; -webkit-text-stroke-width: 0px; background-color: rgb(251, 251, 251); text-decoration-thickness: initial; text-decoration-style: initial; text-decoration-color: initial; float: none; display: inline !important;&quot;&gt;R&lt;/span&gt;&lt;span style=&quot;border-color: var(--border-color); color: rgb(0, 0, 0); font-family: &amp;quot;Linux Libertine&amp;quot;; font-style: normal; font-variant-ligatures: normal; font-variant-caps: normal; font-weight: 400; letter-spacing: normal; orphans: 2; text-align: center; text-indent: 0px; text-transform: none; widows: 2; word-spacing: 0px; -webkit-text-stroke-width: 0px; text-decoration-thickness: initial; text-decoration-style: initial; text-decoration-color: initial; background-color: rgb(255, 242, 204);&quot;&gt;[31]&lt;/span&gt;&lt;span style=&quot;color: rgb(0, 0, 0); font-family: &amp;quot;Linux Libertine&amp;quot;; font-style: normal; font-variant-ligatures: normal; font-variant-caps: normal; font-weight: 400; letter-spacing: normal; orphans: 2; text-align: center; text-indent: 0px; text-transform: none; widows: 2; word-spacing: 0px; -webkit-text-stroke-width: 0px; background-color: rgb(251, 251, 251); text-decoration-thickness: initial; text-decoration-style: initial; text-decoration-color: initial; float: none; display: inline !important;&quot;&gt;&amp;nbsp;+= V[3] * 10&amp;nbsp;&lt;/span&gt;&lt;/font&gt;" style="text;whiteSpace=wrap;html=1;fontSize=12;" parent="1" vertex="1">
          <mxGeometry x="181.5" y="844" width="136" height="28.29" as="geometry" />
        </mxCell>
        <mxCell id="1255" value="&lt;span style=&quot;color: rgb(0, 0, 0); font-family: &amp;quot;Linux Libertine&amp;quot;; font-style: normal; font-variant-ligatures: normal; font-variant-caps: normal; font-weight: 400; letter-spacing: normal; orphans: 2; text-align: center; text-indent: 0px; text-transform: none; widows: 2; word-spacing: 0px; -webkit-text-stroke-width: 0px; background-color: rgb(251, 251, 251); text-decoration-thickness: initial; text-decoration-style: initial; text-decoration-color: initial; float: none; display: inline !important;&quot;&gt;&lt;font style=&quot;font-size: 12px;&quot;&gt;R[2]&lt;/font&gt;&lt;/span&gt;" style="text;whiteSpace=wrap;html=1;fontSize=12;" parent="1" vertex="1">
          <mxGeometry x="324.93" y="844" width="27.07" height="23.3" as="geometry" />
        </mxCell>
      </root>
    </mxGraphModel>
  </diagram>
</mxfile>
